<svg xmlns="http://www.w3.org/2000/svg" width="9.128" height="13.28" viewBox="0 0 9.128 13.28">
  <path id="Icon_awesome-question" data-name="Icon awesome-question" d="M6.376,0A5.025,5.025,0,0,0,1.912,2.361a.623.623,0,0,0,.134.853l1.119.848a.622.622,0,0,0,.863-.108A2.516,2.516,0,0,1,6.174,2.672c.8,0,1.785.514,1.785,1.287,0,.585-.483.885-1.271,1.327-.919.515-2.135,1.156-2.135,2.76V8.3a.622.622,0,0,0,.622.622h1.88A.622.622,0,0,0,7.678,8.3V8.15c0-1.112,3.249-1.158,3.249-4.166C10.927,1.719,8.577,0,6.376,0Zm-.26,9.687a1.8,1.8,0,1,0,1.8,1.8A1.8,1.8,0,0,0,6.116,9.687Z" transform="translate(-1.8)" fill="#d5aefa"/>
</svg>
